<?xml version="1.0" encoding="utf-8"?>
<!-- Generator: Adobe Illustrator 18.1.0, SVG Export Plug-In . SVG Version: 6.00 Build 0)  -->
<!DOCTYPE svg PUBLIC "-//W3C//DTD SVG 1.1//EN" "http://www.w3.org/Graphics/SVG/1.1/DTD/svg11.dtd">
<svg version="1.1" id="Layer_1" xmlns="http://www.w3.org/2000/svg" xmlns:xlink="http://www.w3.org/1999/xlink" x="0px" y="0px"
	 viewBox="64 0 472.5 472.5" enable-background="new 64 0 472.5 472.5" xml:space="preserve">
<rect x="-1145" y="-807.2" display="none" fill="#E5E5E5" width="2890.5" height="2080.9"/>
<g>
	<g>
		<path fill="#FFFFFF" d="M528,68c-10.4-27.9-32.1-49.6-60-60c-25.5-8-49.1-8-96.8-8H228.7c-47.2,0-71.3,0-96.8,8
			c-27.9,10.4-49.6,32.1-60,60c-8,25.5-8,49.1-8,96.8v143c0,47.2,0,71.3,8,96.8c9.9,27.9,32.1,49.6,60,60c25.5,8,49.1,8,96.8,8h143
			c47.2,0,71.3,0,96.8-8c27.9-9.9,49.6-32.1,60-60c8-25.5,8-49.1,8-96.8v-143C536,117.1,536,93.5,528,68z M418,149.2h-86.9v248.3
			h-62.3V149.2H182V86.9h236V149.2z"/>
	</g>
</g>
</svg>
